
<svg width="512" height="512" viewBox="0 0 512 512" fill="none" xmlns="http://www.w3.org/2000/svg">
  <circle cx="256" cy="256" r="256" fill="#111827"/>
  <path d="M256 128C186.1 128 128 186.1 128 256C128 325.9 186.1 384 256 384C325.9 384 384 325.9 384 256C384 186.1 325.9 128 256 128ZM256 352C203.4 352 160 308.6 160 256C160 203.4 203.4 160 256 160C308.6 160 352 203.4 352 256C352 308.6 308.6 352 256 352Z" fill="#FACC15"/>
  <path d="M317.5 194.5C305.8 182.8 290.9 175 275 171.2C259.1 167.4 242.5 167.8 226.8 172.3C211.1 176.8 196.9 185.3 185.9 196.9C174.9 208.5 167.5 222.9 164.5 238.5C161.5 254.1 163 270.3 168.8 285.1C174.6 299.9 184.4 312.7 197.1 322.1C209.8 331.5 224.8 337.1 240.5 338.3C256.2 339.5 271.9 336.3 285.9 329.1L270.5 302.9C261.2 307.7 250.6 309.9 239.9 309.1C229.2 308.3 218.9 304.6 210.2 298.4C201.5 292.2 194.8 283.8 190.9 274.1C187 264.4 186.1 253.8 188.3 243.6C190.5 233.4 195.7 224.1 203.2 216.8C210.7 209.5 220.2 204.5 230.6 202.4C241 200.3 251.8 201.2 261.7 204.9C271.6 208.6 280.1 215 286.3 223.3L317.5 194.5Z" fill="#FACC15"/>
</svg>
